<svg width="18" height="19" viewBox="0 0 18 19" fill="none" xmlns="http://www.w3.org/2000/svg">
<path fill-rule="evenodd" clip-rule="evenodd" d="M2 9C2 8.4477 2.4477 8 3 8H4C4.5523 8 5 8.4477 5 9V10C5 10.5523 4.5523 11 4 11H3C2.4477 11 2 10.5523 2 10V9ZM4 9V10H3V9H4Z" fill="black" fill-opacity="0.5"/>
<path fill-rule="evenodd" clip-rule="evenodd" d="M7 8C6.4477 8 6 8.4477 6 9V10C6 10.5523 6.4477 11 7 11H8C8.5523 11 9 10.5523 9 10V9C9 8.4477 8.5523 8 8 8H7ZM8 9H7V10H8V9Z" fill="black" fill-opacity="0.5"/>
<path fill-rule="evenodd" clip-rule="evenodd" d="M10 9C10 8.4477 10.4477 8 11 8H12C12.5523 8 13 8.4477 13 9V10C13 10.5523 12.5523 11 12 11H11C10.4477 11 10 10.5523 10 10V9ZM11 9H12V10H11V9Z" fill="black" fill-opacity="0.5"/>
<path fill-rule="evenodd" clip-rule="evenodd" d="M3 12C2.4477 12 2 12.4477 2 13V14C2 14.5523 2.4477 15 3 15H4C4.5523 15 5 14.5523 5 14V13C5 12.4477 4.5523 12 4 12H3ZM3 13V14H4V13H3Z" fill="black" fill-opacity="0.5"/>
<path fill-rule="evenodd" clip-rule="evenodd" d="M6 13C6 12.4477 6.4477 12 7 12H8C8.5523 12 9 12.4477 9 13V14C9 14.5523 8.5523 15 8 15H7C6.4477 15 6 14.5523 6 14V13ZM7 13H8V14H7V13Z" fill="black" fill-opacity="0.5"/>
<path d="M14.5 13.25C14.7761 13.25 15 13.4739 15 13.75V14.7929L15.3535 15.1465C15.5488 15.3417 15.5488 15.6583 15.3535 15.8535C15.1583 16.0488 14.8417 16.0488 14.6465 15.8535L14 15.2071V13.75C14 13.4739 14.2239 13.25 14.5 13.25Z" fill="black" fill-opacity="0.5"/>
<path fill-rule="evenodd" clip-rule="evenodd" d="M3 1C3 0.72386 3.22385 0.5 3.5 0.5C3.77615 0.5 4 0.72386 4 1V3.5C4 3.77615 3.77615 4 3.5 4C3.22385 4 3 3.77615 3 3.5V3H1.5C1.22386 3 1 3.22385 1 3.5V5.5H14V3.5C14 3.22385 13.7761 3 13.5 3H12V2H13.5C14.3285 2 15 2.6716 15 3.5V11.5354C16.6961 11.7781 18 13.2367 18 15C18 16.933 16.433 18.5 14.5 18.5C13.3106 18.5 12.2598 17.9067 11.6273 17H1.5C0.671575 17 0 16.3285 0 15.5V3.5C0 2.67155 0.671575 2 1.5 2H3V1ZM11 15C11 13.2367 12.3039 11.7781 14 11.5354V6.5H1V15.5C1 15.7761 1.22386 16 1.5 16H11.1449C11.0506 15.6832 11 15.3475 11 15ZM14.5 17.5C15.8807 17.5 17 16.3807 17 15C17 13.6193 15.8807 12.5 14.5 12.5C13.1193 12.5 12 13.6193 12 15C12 16.3807 13.1193 17.5 14.5 17.5Z" fill="black" fill-opacity="0.5"/>
<path d="M10.5 4C10.2239 4 10 3.77615 10 3.5V3H5V2H10V1C10 0.72386 10.2239 0.5 10.5 0.5C10.7761 0.5 11 0.72386 11 1V3.5C11 3.77615 10.7761 4 10.5 4Z" fill="black" fill-opacity="0.5"/>
</svg>
