<svg width="24" height="25" viewBox="0 0 24 25" fill="none" xmlns="http://www.w3.org/2000/svg">
<path fill-rule="evenodd" clip-rule="evenodd" d="M17 8.5C17 11.2614 14.7614 13.5 12 13.5C9.2386 13.5 7 11.2614 7 8.5C7 5.7386 9.2386 3.5 12 3.5C14.7614 3.5 17 5.7386 17 8.5ZM16 8.5C16 10.7092 14.2092 12.5 12 12.5C9.79085 12.5 8 10.7092 8 8.5C8 6.29085 9.79085 4.5 12 4.5C14.2092 4.5 16 6.29085 16 8.5Z" fill="black" fill-opacity="0.5"/>
<path fill-rule="evenodd" clip-rule="evenodd" d="M8.95705 14.9276C8.9589 14.9313 8.96075 14.9349 8.9626 14.9386C8.97535 14.9641 8.9878 14.9887 9 15.0119H11.0319C11.4854 15.0118 11.7118 15.0118 11.9384 15.0119H11.9508C12.1727 15.0119 12.399 15.012 12.8426 15.0119H14.8747C14.9888 14.7951 15.2486 14.4491 15.5 14.5063C16.0648 14.635 16.6338 14.8143 17.1805 15.0347L17.1972 15.0264L17.2027 15.0374L17.2064 15.0452C19.264 15.8808 21 17.2981 21 18.785V21.5H3V18.785C3 16.8973 5.7979 15.1217 8.5 14.5063C8.72065 14.4561 8.85125 14.7166 8.95705 14.9276ZM16.3521 15.7913C16.1375 15.7163 15.9199 15.6483 15.7015 15.588L15.4783 16.0119H12.8426C12.3892 16.012 12.1657 16.0119 11.9448 16.0119C11.7188 16.0118 11.4956 16.0118 11.0322 16.0119H8.39635L8.1894 15.6187C8.1292 15.6361 8.0691 15.654 8.0091 15.6725C8.0058 15.7055 8.0032 15.7427 8.00165 15.7844C7.99515 15.9569 8.00805 16.1614 8.03645 16.37C8.0648 16.5779 8.10695 16.7773 8.15385 16.9381C8.1613 16.9637 8.16875 16.9877 8.17605 17.0102C8.92155 17.0974 9.5 17.7312 9.5 18.5C9.5 19.3285 8.82845 20 8 20C7.17155 20 6.5 19.3285 6.5 18.5C6.5 17.9666 6.7785 17.4981 7.198 17.2322L7.19385 17.2181C7.1314 17.004 7.0798 16.7555 7.04565 16.5051C7.0249 16.3531 7.01 16.1958 7.00355 16.041C6.38525 16.3049 5.80925 16.6239 5.32615 16.9764C4.36486 17.6777 4 18.3335 4 18.785V20.5H20V18.785C20 18.3335 19.6351 17.6777 18.6738 16.9764C18.2817 16.6903 17.8284 16.4262 17.3409 16.1958C17.333 16.2997 17.3217 16.4036 17.3079 16.5051C17.2848 16.6743 17.2538 16.8426 17.2168 17H17.5C17.6894 17 17.8625 17.107 17.9472 17.2764L18.4472 18.2764C18.482 18.3458 18.5 18.4224 18.5 18.5V19.5C18.5 19.7762 18.2761 20 18 20H17V19H17.5V18.6181L17.191 18H15.809L15.5 18.6181V19H16V20H15C14.7239 20 14.5 19.7762 14.5 19.5V18.5C14.5 18.4224 14.5181 18.3458 14.5528 18.2764L15.0528 17.2764C15.1375 17.107 15.3106 17 15.5 17H16.1808C16.187 16.9805 16.1933 16.9599 16.1997 16.9381C16.2466 16.7773 16.2888 16.5779 16.3171 16.37C16.3452 16.1642 16.3581 15.9623 16.3521 15.7913ZM8.5 18.5C8.5 18.7871 8.2692 19.0074 8 19.0074C7.7308 19.0074 7.5 18.7871 7.5 18.5C7.5 18.2129 7.7308 17.9926 8 17.9926C8.2692 17.9926 8.5 18.2129 8.5 18.5Z" fill="black" fill-opacity="0.5"/>
</svg>
