<svg width="19" height="19" viewBox="0 0 19 19" fill="none" xmlns="http://www.w3.org/2000/svg">
<path fill-rule="evenodd" clip-rule="evenodd" d="M6.43994 0.783203C6.71609 0.783203 6.93994 1.00706 6.93994 1.2832V4.58319C6.93994 4.85934 6.71609 5.08319 6.43994 5.08319C6.16379 5.08319 5.93994 4.85934 5.93994 4.58319V1.2832C5.93994 1.00706 6.16379 0.783203 6.43994 0.783203Z" fill="black" fill-opacity="0.5"/>
<path fill-rule="evenodd" clip-rule="evenodd" d="M2.8903 3.95265C3.4546 3.818 4.0315 3.9202 4.6296 4.2294C5.11765 4.48165 5.46325 4.59725 5.73285 4.653C6.0021 4.7087 6.2159 4.7097 6.47435 4.7097L6.47425 5.7097H6.46445C6.2065 5.7097 5.9046 5.7097 5.53035 5.6323C5.1518 5.554 4.7195 5.40155 4.1704 5.1177C3.7314 4.89075 3.4008 4.8589 3.1224 4.92535C2.83065 4.99495 2.5218 5.19 2.16655 5.55735C1.3503 6.40125 1.09703 7.27025 1.00867 7.9383C0.958879 8.76055 1.1069 10.383 1.84252 11.97C2.09255 12.5093 2.44745 13.2551 2.88035 13.8381C3.09655 14.1293 3.3133 14.3534 3.52195 14.4912C3.72445 14.6249 3.8927 14.6614 4.04505 14.6351C5.6064 14.3661 5.9004 14.3598 6.20425 14.3598H6.72285V15.3598H6.20425C6.19945 15.3598 6.19465 15.3598 6.1898 15.3598C5.97885 15.3596 5.73025 15.3595 4.21485 15.6206C3.74495 15.7016 3.3215 15.5571 2.97095 15.3256C2.62655 15.0982 2.3289 14.7728 2.07745 14.4342C1.5751 13.7576 1.18177 12.9223 0.935254 12.3905C0.116564 10.6243 -0.0503762 8.8216 0.0117388 7.85815L0.0127637 7.8422L0.0148089 7.82635C0.120829 7.0043 0.437159 5.907 1.44775 4.8621C1.87035 4.4252 2.33935 4.0841 2.8903 3.95265Z" fill="black" fill-opacity="0.5"/>
<path fill-rule="evenodd" clip-rule="evenodd" d="M4.31965 2.7049C5.06775 3.4205 5.47345 4.2882 5.47345 4.96C5.47345 5.23615 5.6973 5.46 5.97345 5.46C6.2496 5.46 6.47345 5.23615 6.47345 4.96C6.47345 3.93465 5.88915 2.82235 5.01085 1.98225C4.1219 1.13196 2.8715 0.5 1.44775 0.5C1.17161 0.5 0.947754 0.72386 0.947754 1C0.947754 1.27614 1.17161 1.5 1.44775 1.5C2.5697 1.5 3.58215 1.99946 4.31965 2.7049Z" fill="black" fill-opacity="0.5"/>
<path fill-rule="evenodd" clip-rule="evenodd" d="M1.28716 0.503913C1.56117 0.469663 1.81106 0.664023 1.84531 0.938033C2.09101 2.90351 3.81776 3.93811 5.21201 4.49581C5.46841 4.59836 5.59311 4.88936 5.49056 5.14576C5.38801 5.40211 5.09701 5.52686 4.84061 5.42431C3.40631 4.85056 1.17306 3.62231 0.853034 1.06207C0.818784 0.788059 1.01315 0.538163 1.28716 0.503913Z" fill="black" fill-opacity="0.5"/>
<path fill-rule="evenodd" clip-rule="evenodd" d="M9.88113 3.95159C9.30508 3.81964 8.71393 3.91879 8.09553 4.22564C7.58553 4.47879 7.22263 4.59564 6.93763 4.65224C6.65288 4.70874 6.42653 4.70969 6.15718 4.70969C5.88103 4.70974 5.65723 4.93364 5.65723 5.20974C5.65728 5.48589 5.88113 5.70974 6.15728 5.70969H6.16693C6.43553 5.70969 6.74653 5.70969 7.13233 5.63309C7.52253 5.55564 7.96983 5.40444 8.54008 5.12139C9.00198 4.89219 9.35613 4.85724 9.65783 4.92634C9.97088 4.99809 10.2964 5.19744 10.6663 5.56459C11.5243 6.41619 11.7839 7.29089 11.8734 7.95684C11.9102 8.23054 12.1618 8.42259 12.4355 8.38584C12.7092 8.34909 12.9012 8.09739 12.8645 7.82369C12.7535 6.99749 12.4224 5.89874 11.3708 4.85484C10.9304 4.41774 10.4458 4.08094 9.88113 3.95159ZM10.3534 14.14C10.1544 13.9486 9.83788 13.9546 9.64638 14.1536C9.26783 14.547 8.94978 14.6791 8.68073 14.6346C7.05483 14.3656 6.75143 14.3598 6.43853 14.3598C6.16238 14.3598 5.93853 14.5837 5.93853 14.8598C5.93853 15.1359 6.16238 15.3598 6.43853 15.3598C6.44323 15.3598 6.44793 15.3598 6.45268 15.3598C6.67618 15.3597 6.93603 15.3595 8.51748 15.6212C9.27848 15.747 9.91008 15.3217 10.3669 14.847C10.5584 14.648 10.5523 14.3315 10.3534 14.14Z" fill="black" fill-opacity="0.5"/>
<path fill-rule="evenodd" clip-rule="evenodd" d="M13.3252 5.0512C12.8233 5.95665 12.6936 6.9057 12.8931 7.5472C12.9751 7.8109 12.8278 8.09115 12.5641 8.1731C12.3004 8.2551 12.0202 8.10785 11.9382 7.84415C11.6337 6.86505 11.8614 5.6294 12.4506 4.5664C13.047 3.4905 14.0533 2.51575 15.4129 2.093C15.6765 2.011 15.9568 2.15825 16.0388 2.42195C16.1208 2.68565 15.9735 2.9659 15.7098 3.0479C14.6384 3.38105 13.82 4.1586 13.3252 5.0512Z" fill="black" fill-opacity="0.5"/>
<path fill-rule="evenodd" clip-rule="evenodd" d="M14.3592 5.68894C13.7754 6.54384 12.9855 7.08574 12.3228 7.19544C12.0503 7.24049 11.866 7.49789 11.9111 7.77034C11.9562 8.04279 12.2136 8.22709 12.486 8.18199C13.4976 8.01464 14.4996 7.25659 15.185 6.25289C15.8788 5.23709 16.2981 3.90024 16.0657 2.49559C16.0206 2.22319 15.7632 2.03884 15.4908 2.08394C15.2183 2.12904 15.034 2.38644 15.0791 2.65884C15.2623 3.76579 14.9348 4.84614 14.3592 5.68894Z" fill="black" fill-opacity="0.5"/>
<path fill-rule="evenodd" clip-rule="evenodd" d="M12.8901 8.5C12.1998 8.5 11.6401 9.05965 11.6401 9.75C11.6401 10.4404 12.1998 11 12.8901 11C13.5805 11 14.1401 10.4404 14.1401 9.75C14.1401 9.05965 13.5805 8.5 12.8901 8.5ZM10.6401 9.75C10.6401 8.50735 11.6475 7.5 12.8901 7.5C14.1328 7.5 15.1401 8.50735 15.1401 9.75C15.1401 10.9927 14.1328 12 12.8901 12C11.6475 12 10.6401 10.9927 10.6401 9.75Z" fill="black" fill-opacity="0.5"/>
<path fill-rule="evenodd" clip-rule="evenodd" d="M15.9225 6.04436C16.4841 6.24596 16.9427 6.66241 17.1973 7.20211C17.4519 7.74181 17.4817 8.36051 17.2801 8.92216C17.1869 9.18211 16.9005 9.31716 16.6406 9.22386C16.3807 9.13061 16.2456 8.84426 16.3389 8.58436C16.4509 8.27236 16.4344 7.92861 16.2929 7.62876C16.1515 7.32896 15.8967 7.09756 15.5847 6.98561C15.2726 6.87361 14.9289 6.89016 14.6291 7.03161C14.3292 7.17306 14.0979 7.42781 13.9859 7.73986C13.8926 7.99976 13.6063 8.13481 13.3464 8.04156C13.0865 7.94826 12.9514 7.66196 13.0447 7.40201C13.2463 6.84036 13.6627 6.38181 14.2024 6.12721C14.7421 5.87256 15.3608 5.84281 15.9225 6.04436Z" fill="black" fill-opacity="0.5"/>
<path fill-rule="evenodd" clip-rule="evenodd" d="M15.1266 8.58804C15.4172 8.50429 15.7216 8.47994 16.0218 8.51649C16.322 8.55304 16.6118 8.64974 16.8738 8.80079C17.1358 8.95184 17.3646 9.15414 17.5466 9.39564C17.7287 9.63714 17.8601 9.91284 17.9332 10.2063C18.0063 10.4997 18.0195 10.8049 17.9719 11.1036C17.9244 11.4022 17.8172 11.6882 17.6566 11.9445C17.4961 12.2008 17.2855 12.4221 17.0375 12.5951C16.811 12.7531 16.4994 12.6977 16.3413 12.4712C16.1833 12.2448 16.2388 11.9331 16.4652 11.7751C16.603 11.6789 16.72 11.556 16.8092 11.4136C16.8984 11.2712 16.958 11.1123 16.9844 10.9464C17.0108 10.7805 17.0034 10.611 16.9628 10.4479C16.9223 10.2849 16.8492 10.1317 16.7481 9.99759C16.6469 9.86344 16.5198 9.75104 16.3743 9.66709C16.2287 9.58319 16.0677 9.52944 15.901 9.50914C15.7342 9.48884 15.565 9.50239 15.4036 9.54889C15.2422 9.59544 15.0918 9.67404 14.9614 9.78004C14.7471 9.95424 14.4322 9.92174 14.258 9.70744C14.0839 9.49319 14.1164 9.17824 14.3306 9.00409C14.5653 8.81334 14.836 8.67184 15.1266 8.58804Z" fill="black" fill-opacity="0.5"/>
<path fill-rule="evenodd" clip-rule="evenodd" d="M10.8901 11.5C10.1998 11.5 9.64014 12.0596 9.64014 12.75C9.64014 13.4404 10.1998 14 10.8901 14C11.5805 14 12.1401 13.4404 12.1401 12.75C12.1401 12.0596 11.5805 11.5 10.8901 11.5ZM8.64014 12.75C8.64014 11.5073 9.64749 10.5 10.8901 10.5C12.1328 10.5 13.1401 11.5073 13.1401 12.75C13.1401 13.9927 12.1328 15 10.8901 15C9.64749 15 8.64014 13.9927 8.64014 12.75Z" fill="black" fill-opacity="0.5"/>
<path fill-rule="evenodd" clip-rule="evenodd" d="M14.8901 11.5C14.1998 11.5 13.6401 12.0596 13.6401 12.75C13.6401 13.4404 14.1998 14 14.8901 14C15.5805 14 16.1401 13.4404 16.1401 12.75C16.1401 12.0596 15.5805 11.5 14.8901 11.5ZM12.6401 12.75C12.6401 11.5073 13.6475 10.5 14.8901 10.5C16.1328 10.5 17.1401 11.5073 17.1401 12.75C17.1401 13.9927 16.1328 15 14.8901 15C13.6475 15 12.6401 13.9927 12.6401 12.75Z" fill="black" fill-opacity="0.5"/>
<path fill-rule="evenodd" clip-rule="evenodd" d="M12.8901 14.5C12.1998 14.5 11.6401 15.0596 11.6401 15.75C11.6401 16.4404 12.1998 17 12.8901 17C13.5805 17 14.1401 16.4404 14.1401 15.75C14.1401 15.0596 13.5805 14.5 12.8901 14.5ZM10.6401 15.75C10.6401 14.5073 11.6475 13.5 12.8901 13.5C14.1328 13.5 15.1401 14.5073 15.1401 15.75C15.1401 16.9927 14.1328 18 12.8901 18C11.6475 18 10.6401 16.9927 10.6401 15.75Z" fill="black" fill-opacity="0.5"/>
<path fill-rule="evenodd" clip-rule="evenodd" d="M15.917 13.9823C16.0099 13.7223 16.296 13.5868 16.5561 13.6797C16.8732 13.793 17.1608 13.976 17.3978 14.2153C17.6348 14.4546 17.815 14.744 17.9252 15.0623C18.0354 15.3805 18.0727 15.7194 18.0345 16.054C17.9963 16.3886 17.8834 16.7103 17.7042 16.9955C17.5251 17.2807 17.2842 17.522 16.9993 17.7016C16.7145 17.8813 16.3929 17.9947 16.0584 18.0335C15.7239 18.0723 15.3849 18.0356 15.0665 17.9259C14.7481 17.8163 14.4583 17.6365 14.2186 17.4C14.0221 17.206 14.02 16.8894 14.214 16.6929C14.4079 16.4963 14.7245 16.4942 14.921 16.6882C15.0542 16.8196 15.2152 16.9195 15.3921 16.9804C15.569 17.0413 15.7573 17.0617 15.9432 17.0402C16.129 17.0186 16.3076 16.9556 16.4659 16.8558C16.6241 16.756 16.758 16.6219 16.8575 16.4635C16.957 16.3051 17.0197 16.1263 17.041 15.9404C17.0622 15.7546 17.0415 15.5663 16.9802 15.3895C16.919 15.2127 16.8189 15.0519 16.6873 14.919C16.5556 14.786 16.3958 14.6843 16.2196 14.6214C15.9596 14.5285 15.8241 14.2423 15.917 13.9823Z" fill="black" fill-opacity="0.5"/>
</svg>
