<svg width="45" height="46" viewBox="0 0 45 46" fill="none" xmlns="http://www.w3.org/2000/svg">
<rect y="0.5" width="45" height="45" rx="22.5" fill="#DEDCFF"/>
<path fill-rule="evenodd" clip-rule="evenodd" d="M29.25 18.5C29.25 22.2279 26.228 25.25 22.5 25.25C18.7721 25.25 15.75 22.2279 15.75 18.5C15.75 14.7721 18.7721 11.75 22.5 11.75C26.228 11.75 29.25 14.7721 29.25 18.5ZM27 18.5C27 20.9853 24.9853 23 22.5 23C20.0147 23 18 20.9853 18 18.5C18 16.0147 20.0147 14 22.5 14C24.9853 14 27 16.0147 27 18.5Z" fill="#6427CE"/>
<path d="M22.5 28.625C15.2163 28.625 9.01046 32.932 6.64648 38.966C7.22237 39.5379 7.82902 40.0788 8.46373 40.5861C10.2241 35.0462 15.7463 30.875 22.5 30.875C29.2537 30.875 34.776 35.0462 36.5363 40.5861C37.1711 40.0788 37.7777 39.5379 38.3536 38.9661C35.9896 32.932 29.7837 28.625 22.5 28.625Z" fill="#6427CE"/>
<circle cx="22.5" cy="23" r="21.5" stroke="#6427CE" stroke-width="2"/>
</svg>
